<!DOCTYPE svg PUBLIC "-//W3C//DTD SVG 1.1//EN" "http://www.w3.org/Graphics/SVG/1.1/DTD/svg11.dtd">
<!-- Uploaded to: SVG Repo, www.svgrepo.com, Transformed by: SVG Repo Mixer Tools -->
<svg width="800px" height="800px" viewBox="-1.12 -1.12 18.24 18.24" fill="none" xmlns="http://www.w3.org/2000/svg">
<g id="SVGRepo_bgCarrier" stroke-width="0"/>
<g id="SVGRepo_tracerCarrier" stroke-linecap="round" stroke-linejoin="round" stroke="#c84b4b" stroke-width="2.08" data-darkreader-inline-stroke="" style="--darkreader-inline-stroke: #c84b4b;"> <path d="M5.46447 4.46447C3.51184 6.41709 3.51184 9.58291 5.46447 11.5355C7.41709 13.4882 10.5829 13.4882 12.5355 11.5355L14.6569 13.6569C11.5327 16.781 6.46734 16.781 3.34315 13.6569C0.218951 10.5327 0.218951 5.46734 3.34315 2.34315C6.46734 -0.781049 11.5327 -0.781049 14.6569 2.34315L12.5355 4.46447C10.5829 2.51184 7.41709 2.51184 5.46447 4.46447Z" fill="#000000" data-darkreader-inline-fill="" style="--darkreader-inline-fill: #000000;"/> </g>
<g id="SVGRepo_iconCarrier"> <path d="M5.46447 4.46447C3.51184 6.41709 3.51184 9.58291 5.46447 11.5355C7.41709 13.4882 10.5829 13.4882 12.5355 11.5355L14.6569 13.6569C11.5327 16.781 6.46734 16.781 3.34315 13.6569C0.218951 10.5327 0.218951 5.46734 3.34315 2.34315C6.46734 -0.781049 11.5327 -0.781049 14.6569 2.34315L12.5355 4.46447C10.5829 2.51184 7.41709 2.51184 5.46447 4.46447Z" fill="#000000" data-darkreader-inline-fill="" style="--darkreader-inline-fill: #000000;"/> </g>
</svg>